<?xml version="1.0" encoding="UTF-8" standalone="no"?><svg xmlns="http://www.w3.org/2000/svg" xmlns:xlink="http://www.w3.org/1999/xlink" contentScriptType="application/ecmascript" contentStyleType="text/css" height="1026px" preserveAspectRatio="none" style="width:790px;height:1026px;" version="1.1" viewBox="0 0 790 1026" width="790px" zoomAndPan="magnify"><defs><filter height="300%" id="fue3489sh1fap" width="300%" x="-1" y="-1"><feGaussianBlur result="blurOut" stdDeviation="2.0"/><feColorMatrix in="blurOut" result="blurOut2" type="matrix" values="0 0 0 0 0 0 0 0 0 0 0 0 0 0 0 0 0 0 .4 0"/><feOffset dx="4.0" dy="4.0" in="blurOut2" result="blurOut3"/><feBlend in="SourceGraphic" in2="blurOut3" mode="normal"/></filter></defs><g><text fill="#000000" font-family="sans-serif" font-size="18" lengthAdjust="spacingAndGlyphs" textLength="205" x="291.75" y="26.708">H3 Sequence Diagram</text><rect fill="#FFFFFF" filter="url(#fue3489sh1fap)" height="104.5313" style="stroke: #000000; stroke-width: 2.0;" width="509" x="183.5" y="508.9766"/><rect fill="#FFFFFF" filter="url(#fue3489sh1fap)" height="308.4609" style="stroke: #000000; stroke-width: 2.0;" width="679.5" x="13" y="627.5078"/><line style="stroke: #A80036; stroke-width: 1.0; stroke-dasharray: 5.0,5.0;" x1="67" x2="67" y1="100.25" y2="952.9688"/><line style="stroke: #A80036; stroke-width: 1.0; stroke-dasharray: 5.0,5.0;" x1="239.5" x2="239.5" y1="100.25" y2="952.9688"/><line style="stroke: #A80036; stroke-width: 1.0; stroke-dasharray: 5.0,5.0;" x1="383.5" x2="383.5" y1="100.25" y2="952.9688"/><line style="stroke: #A80036; stroke-width: 1.0; stroke-dasharray: 5.0,5.0;" x1="496" x2="496" y1="100.25" y2="952.9688"/><line style="stroke: #A80036; stroke-width: 1.0; stroke-dasharray: 5.0,5.0;" x1="659.5" x2="659.5" y1="100.25" y2="952.9688"/><text fill="#000000" font-family="sans-serif" font-size="14" lengthAdjust="spacingAndGlyphs" textLength="83" x="23" y="96.9482">Application</text><ellipse cx="67.5" cy="67.9531" fill="#FEFECE" filter="url(#fue3489sh1fap)" rx="12" ry="12" style="stroke: #A80036; stroke-width: 2.0;"/><line style="stroke: #A80036; stroke-width: 2.0;" x1="55.5" x2="79.5" y1="81.9531" y2="81.9531"/><text fill="#000000" font-family="sans-serif" font-size="14" lengthAdjust="spacingAndGlyphs" textLength="83" x="23" y="964.9639">Application</text><ellipse cx="67.5" cy="984.2656" fill="#FEFECE" filter="url(#fue3489sh1fap)" rx="12" ry="12" style="stroke: #A80036; stroke-width: 2.0;"/><line style="stroke: #A80036; stroke-width: 2.0;" x1="55.5" x2="79.5" y1="998.2656" y2="998.2656"/><text fill="#000000" font-family="sans-serif" font-size="14" lengthAdjust="spacingAndGlyphs" textLength="86" x="193.5" y="96.9482">Component</text><ellipse cx="239.5" cy="67.9531" fill="#FEFECE" filter="url(#fue3489sh1fap)" rx="12" ry="12" style="stroke: #A80036; stroke-width: 2.0;"/><polygon fill="#A80036" points="235.5,55.9531,241.5,50.9531,239.5,55.9531,241.5,60.9531,235.5,55.9531" style="stroke: #A80036; stroke-width: 1.0;"/><text fill="#000000" font-family="sans-serif" font-size="14" lengthAdjust="spacingAndGlyphs" textLength="86" x="193.5" y="964.9639">Component</text><ellipse cx="239.5" cy="984.2656" fill="#FEFECE" filter="url(#fue3489sh1fap)" rx="12" ry="12" style="stroke: #A80036; stroke-width: 2.0;"/><polygon fill="#A80036" points="235.5,972.2656,241.5,967.2656,239.5,972.2656,241.5,977.2656,235.5,972.2656" style="stroke: #A80036; stroke-width: 1.0;"/><text fill="#000000" font-family="sans-serif" font-size="14" lengthAdjust="spacingAndGlyphs" textLength="19" x="371" y="96.9482">H3</text><ellipse cx="383.5" cy="67.9531" fill="#FEFECE" filter="url(#fue3489sh1fap)" rx="12" ry="12" style="stroke: #A80036; stroke-width: 2.0;"/><line style="stroke: #A80036; stroke-width: 2.0;" x1="371.5" x2="395.5" y1="81.9531" y2="81.9531"/><text fill="#000000" font-family="sans-serif" font-size="14" lengthAdjust="spacingAndGlyphs" textLength="19" x="371" y="964.9639">H3</text><ellipse cx="383.5" cy="984.2656" fill="#FEFECE" filter="url(#fue3489sh1fap)" rx="12" ry="12" style="stroke: #A80036; stroke-width: 2.0;"/><line style="stroke: #A80036; stroke-width: 2.0;" x1="371.5" x2="395.5" y1="998.2656" y2="998.2656"/><text fill="#000000" font-family="sans-serif" font-size="14" lengthAdjust="spacingAndGlyphs" textLength="49" x="469" y="96.9482">Router</text><ellipse cx="496.5" cy="67.9531" fill="#FEFECE" filter="url(#fue3489sh1fap)" rx="12" ry="12" style="stroke: #A80036; stroke-width: 2.0;"/><line style="stroke: #A80036; stroke-width: 2.0;" x1="484.5" x2="508.5" y1="81.9531" y2="81.9531"/><text fill="#000000" font-family="sans-serif" font-size="14" lengthAdjust="spacingAndGlyphs" textLength="49" x="469" y="964.9639">Router</text><ellipse cx="496.5" cy="984.2656" fill="#FEFECE" filter="url(#fue3489sh1fap)" rx="12" ry="12" style="stroke: #A80036; stroke-width: 2.0;"/><line style="stroke: #A80036; stroke-width: 2.0;" x1="484.5" x2="508.5" y1="998.2656" y2="998.2656"/><text fill="#000000" font-family="sans-serif" font-size="14" lengthAdjust="spacingAndGlyphs" textLength="40" x="636.5" y="96.9482">Store</text><path d="M641.5,47.9531 C641.5,37.9531 659.5,37.9531 659.5,37.9531 C659.5,37.9531 677.5,37.9531 677.5,47.9531 L677.5,73.9531 C677.5,83.9531 659.5,83.9531 659.5,83.9531 C659.5,83.9531 641.5,83.9531 641.5,73.9531 L641.5,47.9531 " fill="#FEFECE" filter="url(#fue3489sh1fap)" style="stroke: #000000; stroke-width: 1.5;"/><path d="M641.5,47.9531 C641.5,57.9531 659.5,57.9531 659.5,57.9531 C659.5,57.9531 677.5,57.9531 677.5,47.9531 " fill="none" style="stroke: #000000; stroke-width: 1.5;"/><text fill="#000000" font-family="sans-serif" font-size="14" lengthAdjust="spacingAndGlyphs" textLength="40" x="636.5" y="964.9639">Store</text><path d="M641.5,978.2656 C641.5,968.2656 659.5,968.2656 659.5,968.2656 C659.5,968.2656 677.5,968.2656 677.5,978.2656 L677.5,1004.2656 C677.5,1014.2656 659.5,1014.2656 659.5,1014.2656 C659.5,1014.2656 641.5,1014.2656 641.5,1004.2656 L641.5,978.2656 " fill="#FEFECE" filter="url(#fue3489sh1fap)" style="stroke: #000000; stroke-width: 1.5;"/><path d="M641.5,978.2656 C641.5,988.2656 659.5,988.2656 659.5,988.2656 C659.5,988.2656 677.5,988.2656 677.5,978.2656 " fill="none" style="stroke: #000000; stroke-width: 1.5;"/><polygon fill="#A80036" points="371.5,127.3828,381.5,131.3828,371.5,135.3828,375.5,131.3828" style="stroke: #A80036; stroke-width: 1.0;"/><line style="stroke: #A80036; stroke-width: 1.0; stroke-dasharray: 2.0,2.0;" x1="67.5" x2="377.5" y1="131.3828" y2="131.3828"/><text fill="#000000" font-family="sans-serif" font-size="13" font-weight="bold" lengthAdjust="spacingAndGlyphs" textLength="59" x="74.5" y="126.3169">h3.init()</text><polygon fill="#A80036" points="647.5,156.5156,657.5,160.5156,647.5,164.5156,651.5,160.5156" style="stroke: #A80036; stroke-width: 1.0;"/><line style="stroke: #A80036; stroke-width: 1.0;" x1="383.5" x2="653.5" y1="160.5156" y2="160.5156"/><text fill="#000000" font-family="sans-serif" font-size="13" font-style="italic" lengthAdjust="spacingAndGlyphs" textLength="56" x="390.5" y="155.4497">initialize</text><line style="stroke: #A80036; stroke-width: 1.0;" x1="659.5" x2="701.5" y1="189.6484" y2="189.6484"/><line style="stroke: #A80036; stroke-width: 1.0;" x1="701.5" x2="701.5" y1="189.6484" y2="202.6484"/><line style="stroke: #A80036; stroke-width: 1.0;" x1="660.5" x2="701.5" y1="202.6484" y2="202.6484"/><polygon fill="#A80036" points="670.5,198.6484,660.5,202.6484,670.5,206.6484,666.5,202.6484" style="stroke: #A80036; stroke-width: 1.0;"/><text fill="#000000" font-family="sans-serif" font-size="13" font-style="italic" lengthAdjust="spacingAndGlyphs" textLength="112" x="666.5" y="184.5825">execute modules</text><polygon fill="#A80036" points="647.5,227.7813,657.5,231.7813,647.5,235.7813,651.5,231.7813" style="stroke: #A80036; stroke-width: 1.0;"/><line style="stroke: #A80036; stroke-width: 1.0;" x1="383.5" x2="653.5" y1="231.7813" y2="231.7813"/><text fill="#000000" font-family="sans-serif" font-size="13" lengthAdjust="spacingAndGlyphs" textLength="91" x="390.5" y="226.7153">dispatch($init)</text><polygon fill="#A80036" points="78.5,256.9141,68.5,260.9141,78.5,264.9141,74.5,260.9141" style="stroke: #A80036; stroke-width: 1.0;"/><line style="stroke: #A80036; stroke-width: 1.0;" x1="72.5" x2="382.5" y1="260.9141" y2="260.9141"/><text fill="#000000" font-family="sans-serif" font-size="13" lengthAdjust="spacingAndGlyphs" textLength="62" x="84.5" y="255.8481">preStart()</text><polygon fill="#A80036" points="484.5,286.0469,494.5,290.0469,484.5,294.0469,488.5,290.0469" style="stroke: #A80036; stroke-width: 1.0;"/><line style="stroke: #A80036; stroke-width: 1.0;" x1="383.5" x2="490.5" y1="290.0469" y2="290.0469"/><text fill="#000000" font-family="sans-serif" font-size="13" font-style="italic" lengthAdjust="spacingAndGlyphs" textLength="56" x="390.5" y="284.981">initialize</text><polygon fill="#A80036" points="484.5,315.1797,494.5,319.1797,484.5,323.1797,488.5,319.1797" style="stroke: #A80036; stroke-width: 1.0;"/><line style="stroke: #A80036; stroke-width: 1.0;" x1="383.5" x2="490.5" y1="319.1797" y2="319.1797"/><text fill="#000000" font-family="sans-serif" font-size="13" lengthAdjust="spacingAndGlyphs" textLength="40" x="390.5" y="314.1138">start()</text><polygon fill="#A80036" points="250.5,344.3125,240.5,348.3125,250.5,352.3125,246.5,348.3125" style="stroke: #A80036; stroke-width: 1.0;"/><line style="stroke: #A80036; stroke-width: 1.0; stroke-dasharray: 2.0,2.0;" x1="244.5" x2="495.5" y1="348.3125" y2="348.3125"/><text fill="#000000" font-family="sans-serif" font-size="13" lengthAdjust="spacingAndGlyphs" textLength="46" x="256.5" y="343.2466">setup()</text><polygon fill="#A80036" points="647.5,373.4453,657.5,377.4453,647.5,381.4453,651.5,377.4453" style="stroke: #A80036; stroke-width: 1.0;"/><line style="stroke: #A80036; stroke-width: 1.0;" x1="496.5" x2="653.5" y1="377.4453" y2="377.4453"/><text fill="#000000" font-family="sans-serif" font-size="13" lengthAdjust="spacingAndGlyphs" textLength="139" x="503.5" y="372.3794">dispatch($navigation)</text><polygon fill="#A80036" points="250.5,402.5781,240.5,406.5781,250.5,410.5781,246.5,406.5781" style="stroke: #A80036; stroke-width: 1.0;"/><line style="stroke: #A80036; stroke-width: 1.0;" x1="244.5" x2="495.5" y1="406.5781" y2="406.5781"/><text fill="#000000" font-family="sans-serif" font-size="13" lengthAdjust="spacingAndGlyphs" textLength="52" x="256.5" y="401.5122">render()</text><polygon fill="#A80036" points="250.5,431.7109,240.5,435.7109,250.5,439.7109,246.5,435.7109" style="stroke: #A80036; stroke-width: 1.0;"/><line style="stroke: #A80036; stroke-width: 1.0;" x1="244.5" x2="495.5" y1="435.7109" y2="435.7109"/><text fill="#000000" font-family="sans-serif" font-size="13" lengthAdjust="spacingAndGlyphs" textLength="76" x="256.5" y="430.645">$onrender()</text><polygon fill="#A80036" points="647.5,460.8438,657.5,464.8438,647.5,468.8438,651.5,464.8438" style="stroke: #A80036; stroke-width: 1.0;"/><line style="stroke: #A80036; stroke-width: 1.0;" x1="496.5" x2="653.5" y1="464.8438" y2="464.8438"/><text fill="#000000" font-family="sans-serif" font-size="13" lengthAdjust="spacingAndGlyphs" textLength="117" x="503.5" y="459.7778">dispatch($redraw)</text><polygon fill="#A80036" points="78.5,489.9766,68.5,493.9766,78.5,497.9766,74.5,493.9766" style="stroke: #A80036; stroke-width: 1.0;"/><line style="stroke: #A80036; stroke-width: 1.0;" x1="72.5" x2="382.5" y1="493.9766" y2="493.9766"/><text fill="#000000" font-family="sans-serif" font-size="13" lengthAdjust="spacingAndGlyphs" textLength="69" x="84.5" y="488.9106">postStart()</text><path d="M183.5,508.9766 L281.5,508.9766 L281.5,515.9766 L271.5,525.9766 L183.5,525.9766 L183.5,508.9766 " fill="#EEEEEE" style="stroke: #000000; stroke-width: 1.0;"/><rect fill="none" height="104.5313" style="stroke: #000000; stroke-width: 2.0;" width="509" x="183.5" y="508.9766"/><text fill="#000000" font-family="sans-serif" font-size="13" font-weight="bold" lengthAdjust="spacingAndGlyphs" textLength="53" x="198.5" y="522.0435">redraw</text><polygon fill="#A80036" points="371.5,543.2422,381.5,547.2422,371.5,551.2422,375.5,547.2422" style="stroke: #A80036; stroke-width: 1.0;"/><line style="stroke: #A80036; stroke-width: 1.0;" x1="239.5" x2="377.5" y1="547.2422" y2="547.2422"/><text fill="#000000" font-family="sans-serif" font-size="13" font-weight="bold" lengthAdjust="spacingAndGlyphs" textLength="87" x="246.5" y="542.1763">h3.redraw()</text><polygon fill="#A80036" points="250.5,572.375,240.5,576.375,250.5,580.375,246.5,576.375" style="stroke: #A80036; stroke-width: 1.0;"/><line style="stroke: #A80036; stroke-width: 1.0;" x1="244.5" x2="382.5" y1="576.375" y2="576.375"/><text fill="#000000" font-family="sans-serif" font-size="13" lengthAdjust="spacingAndGlyphs" textLength="55" x="256.5" y="571.3091">redraw()</text><polygon fill="#A80036" points="647.5,601.5078,657.5,605.5078,647.5,609.5078,651.5,605.5078" style="stroke: #A80036; stroke-width: 1.0;"/><line style="stroke: #A80036; stroke-width: 1.0;" x1="383.5" x2="653.5" y1="605.5078" y2="605.5078"/><text fill="#000000" font-family="sans-serif" font-size="13" lengthAdjust="spacingAndGlyphs" textLength="117" x="390.5" y="600.4419">dispatch($redraw)</text><path d="M13,627.5078 L137,627.5078 L137,634.5078 L127,644.5078 L13,644.5078 L13,627.5078 " fill="#EEEEEE" style="stroke: #000000; stroke-width: 1.0;"/><rect fill="none" height="308.4609" style="stroke: #000000; stroke-width: 2.0;" width="679.5" x="13" y="627.5078"/><text fill="#000000" font-family="sans-serif" font-size="13" font-weight="bold" lengthAdjust="spacingAndGlyphs" textLength="79" x="28" y="640.5747">navigation</text><polygon fill="#A80036" points="371.5,661.7734,381.5,665.7734,371.5,669.7734,375.5,665.7734" style="stroke: #A80036; stroke-width: 1.0;"/><line style="stroke: #A80036; stroke-width: 1.0;" x1="239.5" x2="377.5" y1="665.7734" y2="665.7734"/><text fill="#000000" font-family="sans-serif" font-size="13" font-weight="bold" lengthAdjust="spacingAndGlyphs" textLength="120" x="246.5" y="660.7075">h3.navigateTo()</text><polygon fill="#A80036" points="484.5,690.9063,494.5,694.9063,484.5,698.9063,488.5,694.9063" style="stroke: #A80036; stroke-width: 1.0;"/><line style="stroke: #A80036; stroke-width: 1.0;" x1="383.5" x2="490.5" y1="694.9063" y2="694.9063"/><text fill="#000000" font-family="sans-serif" font-size="13" lengthAdjust="spacingAndGlyphs" textLength="89" x="390.5" y="689.8403">processPath()</text><polygon fill="#A80036" points="250.5,720.0391,240.5,724.0391,250.5,728.0391,246.5,724.0391" style="stroke: #A80036; stroke-width: 1.0;"/><line style="stroke: #A80036; stroke-width: 1.0; stroke-dasharray: 2.0,2.0;" x1="244.5" x2="495.5" y1="724.0391" y2="724.0391"/><text fill="#000000" font-family="sans-serif" font-size="13" lengthAdjust="spacingAndGlyphs" textLength="71" x="256.5" y="718.9731">teardown()</text><polygon fill="#A80036" points="250.5,749.1719,240.5,753.1719,250.5,757.1719,246.5,753.1719" style="stroke: #A80036; stroke-width: 1.0;"/><line style="stroke: #A80036; stroke-width: 1.0; stroke-dasharray: 2.0,2.0;" x1="244.5" x2="495.5" y1="753.1719" y2="753.1719"/><text fill="#000000" font-family="sans-serif" font-size="13" lengthAdjust="spacingAndGlyphs" textLength="46" x="256.5" y="748.106">setup()</text><polygon fill="#A80036" points="647.5,778.3047,657.5,782.3047,647.5,786.3047,651.5,782.3047" style="stroke: #A80036; stroke-width: 1.0;"/><line style="stroke: #A80036; stroke-width: 1.0;" x1="496.5" x2="653.5" y1="782.3047" y2="782.3047"/><text fill="#000000" font-family="sans-serif" font-size="13" lengthAdjust="spacingAndGlyphs" textLength="139" x="503.5" y="777.2388">dispatch($navigation)</text><polygon fill="#A80036" points="78.5,807.4375,68.5,811.4375,78.5,815.4375,74.5,811.4375" style="stroke: #A80036; stroke-width: 1.0;"/><line style="stroke: #A80036; stroke-width: 1.0;" x1="72.5" x2="495.5" y1="811.4375" y2="811.4375"/><text fill="#000000" font-family="sans-serif" font-size="13" font-style="italic" lengthAdjust="spacingAndGlyphs" textLength="148" x="84.5" y="806.3716">remove all DOM nodes</text><polygon fill="#A80036" points="227.5,836.5703,237.5,840.5703,227.5,844.5703,231.5,840.5703" style="stroke: #A80036; stroke-width: 1.0;"/><line style="stroke: #A80036; stroke-width: 1.0;" x1="67.5" x2="233.5" y1="840.5703" y2="840.5703"/><text fill="#000000" font-family="sans-serif" font-size="13" font-style="italic" lengthAdjust="spacingAndGlyphs" textLength="148" x="74.5" y="835.5044">remove all DOM nodes</text><polygon fill="#A80036" points="250.5,865.7031,240.5,869.7031,250.5,873.7031,246.5,869.7031" style="stroke: #A80036; stroke-width: 1.0;"/><line style="stroke: #A80036; stroke-width: 1.0;" x1="244.5" x2="495.5" y1="869.7031" y2="869.7031"/><text fill="#000000" font-family="sans-serif" font-size="13" lengthAdjust="spacingAndGlyphs" textLength="52" x="256.5" y="864.6372">render()</text><polygon fill="#A80036" points="250.5,894.8359,240.5,898.8359,250.5,902.8359,246.5,898.8359" style="stroke: #A80036; stroke-width: 1.0;"/><line style="stroke: #A80036; stroke-width: 1.0;" x1="244.5" x2="495.5" y1="898.8359" y2="898.8359"/><text fill="#000000" font-family="sans-serif" font-size="13" lengthAdjust="spacingAndGlyphs" textLength="76" x="256.5" y="893.77">$onrender()</text><polygon fill="#A80036" points="647.5,923.9688,657.5,927.9688,647.5,931.9688,651.5,927.9688" style="stroke: #A80036; stroke-width: 1.0;"/><line style="stroke: #A80036; stroke-width: 1.0;" x1="496.5" x2="653.5" y1="927.9688" y2="927.9688"/><text fill="#000000" font-family="sans-serif" font-size="13" lengthAdjust="spacingAndGlyphs" textLength="117" x="503.5" y="922.9028">dispatch($redraw)</text><!--MD5=[559f570c0dfd5741e1c3ff61a0a0827a]
@startuml
title H3 Sequence Diagram

entity Application
control Component
entity H3
entity Router
database Store

Application - -> H3 : <b>h3.init()</b>
H3 -> Store : //initialize//
Store -> Store : //execute modules//
H3 -> Store : dispatch($init)
H3 -> Application : preStart()
H3 -> Router : //initialize//
H3 -> Router : start()
Router - -> Component : setup() 
Router -> Store: dispatch($navigation)
Router -> Component : render()
Router -> Component : $onrender()
Router -> Store: dispatch($redraw)

H3 -> Application : postStart()

group redraw
    Component -> H3 : <b>h3.redraw()</b>
    H3 -> Component : redraw()
    H3 -> Store: dispatch($redraw)
end

group navigation
    Component -> H3 : <b>h3.navigateTo()</b>
    H3 -> Router : processPath()
    Router - -> Component : teardown() 
    Router - -> Component : setup() 
    Router -> Store: dispatch($navigation)
    Router -> Application : //remove all DOM nodes//
    Application -> Component : //remove all DOM nodes//
    Router -> Component : render()
    Router -> Component : $onrender()
    Router -> Store: dispatch($redraw)
    
end
@enduml

PlantUML version 1.2020.10(Sun May 17 09:48:49 UTC 2020)
(GPL source distribution)
Java Runtime: Java(TM) SE Runtime Environment
JVM: Java HotSpot(TM) 64-Bit Server VM
Operating System: Linux
Default Encoding: UTF-8
Language: en
Country: US
--></g></svg>